<?xml version="1.0" encoding="UTF-8" standalone="no"?>
<svg
   xmlns:dc="http://purl.org/dc/elements/1.1/"
   xmlns:cc="http://creativecommons.org/ns#"
   xmlns:rdf="http://www.w3.org/1999/02/22-rdf-syntax-ns#"
   xmlns:svg="http://www.w3.org/2000/svg"
   xmlns="http://www.w3.org/2000/svg"
   xmlns:sodipodi="http://sodipodi.sourceforge.net/DTD/sodipodi-0.dtd"
   xmlns:inkscape="http://www.inkscape.org/namespaces/inkscape"
   height="50"
   viewBox="0 0 25 25"
   width="50"
   version="1.1"
   id="svg6"
   sodipodi:docname="doc.svg"
   style="fill:#ffffff"
   inkscape:version="0.92pre3 r">
  <metadata
     id="metadata12">
    <rdf:RDF>
      <cc:Work
         rdf:about="">
        <dc:format>image/svg+xml</dc:format>
        <dc:type
           rdf:resource="http://purl.org/dc/dcmitype/StillImage" />
        <dc:title></dc:title>
      </cc:Work>
    </rdf:RDF>
  </metadata>
  <defs
     id="defs10" />
  <sodipodi:namedview
     pagecolor="#ffffff"
     bordercolor="#666666"
     borderopacity="1"
     objecttolerance="10"
     gridtolerance="10"
     guidetolerance="10"
     inkscape:pageopacity="0"
     inkscape:pageshadow="2"
     inkscape:window-width="1280"
     inkscape:window-height="953"
     id="namedview8"
     showgrid="false"
     inkscape:measure-start="0,0"
     inkscape:measure-end="0,0"
     inkscape:zoom="4.9166667"
     inkscape:cx="-5.1864407"
     inkscape:cy="24"
     inkscape:window-x="0"
     inkscape:window-y="24"
     inkscape:window-maximized="1"
     inkscape:current-layer="svg6" />
  <circle
     style="fill:#2a7fff;fill-rule:evenodd;stroke:none;stroke-width:1.95130408px;stroke-linecap:butt;stroke-linejoin:miter;stroke-opacity:1"
     id="path3671"
     cx="12.5"
     cy="12.5"
     r="12.5" />
  <g
     style="fill:#ffffff"
     id="g3819"
     transform="matrix(0.84090909,0,0,0.84090909,-15.278505,35.575116)">
    <path
       id="path3800"
       d="m 34.033898,-27.940678 h 7 v 1.5 h -7 z m 0,-2.5 h 7 v 1.5 h -7 z m 0,5 h 7 v 1.5 h -7 z m 8,-10.5 h -18 c -1.1,0 -2,0.9 -2,2 v 13 c 0,1.1 0.9,2 2,2 h 18 c 1.1,0 2,-0.9 2,-2 v -13 c 0,-1.1 -0.9,-2 -2,-2 z m 0,15 h -9 v -13 h 9 z"
       inkscape:connector-curvature="0"
       style="fill:#ffffff" />
  </g>
</svg>
