<?xml version="1.0" encoding="UTF-8" standalone="no"?>
<svg
   xmlns:dc="http://purl.org/dc/elements/1.1/"
   xmlns:cc="http://creativecommons.org/ns#"
   xmlns:rdf="http://www.w3.org/1999/02/22-rdf-syntax-ns#"
   xmlns:svg="http://www.w3.org/2000/svg"
   xmlns="http://www.w3.org/2000/svg"
   xmlns:sodipodi="http://sodipodi.sourceforge.net/DTD/sodipodi-0.dtd"
   xmlns:inkscape="http://www.inkscape.org/namespaces/inkscape"
   height="50"
   viewBox="0 0 50 50"
   width="50"
   version="1.1"
   id="svg6"
   sodipodi:docname="link.svg"
   style="fill:#ffffff"
   inkscape:version="0.92pre3 r">
  <metadata
     id="metadata12">
    <rdf:RDF>
      <cc:Work
         rdf:about="">
        <dc:format>image/svg+xml</dc:format>
        <dc:type
           rdf:resource="http://purl.org/dc/dcmitype/StillImage" />
        <dc:title></dc:title>
      </cc:Work>
    </rdf:RDF>
  </metadata>
  <defs
     id="defs10">
    <path
       d="M 0,0 H 24 V 24 H 0 Z"
       id="a"
       inkscape:connector-curvature="0" />
  </defs>
  <sodipodi:namedview
     pagecolor="#ffffff"
     bordercolor="#666666"
     borderopacity="1"
     objecttolerance="10"
     gridtolerance="10"
     guidetolerance="10"
     inkscape:pageopacity="0"
     inkscape:pageshadow="2"
     inkscape:window-width="1280"
     inkscape:window-height="953"
     id="namedview8"
     showgrid="false"
     inkscape:zoom="4"
     inkscape:cx="20.440678"
     inkscape:cy="16.169492"
     inkscape:window-x="0"
     inkscape:window-y="24"
     inkscape:window-maximized="1"
     inkscape:current-layer="svg6" />
  <g
     id="g100"
     transform="translate(5.1694908,7.9152546)">
    <circle
       r="25"
       cy="17.084745"
       cx="19.830509"
       id="path3671"
       style="fill:#d40055;fill-opacity:1;fill-rule:evenodd;stroke:none;stroke-width:3.90260816px;stroke-linecap:butt;stroke-linejoin:miter;stroke-opacity:1" />
    <path
       style="stroke-width:1.85000002"
       inkscape:connector-curvature="0"
       id="path4"
       d="m 4.8455093,17.084745 c 0,-3.1635 2.5715,-5.734999 5.7349997,-5.734999 h 7.4 V 7.8347458 h -7.4 c -5.1059997,0 -9.2499997,4.1440002 -9.2499997,9.2499992 0,5.106 4.144,9.25 9.2499997,9.25 h 7.4 v -3.515 h -7.4 c -3.1634997,0 -5.7349997,-2.5715 -5.7349997,-5.735 z m 7.5849997,1.85 h 14.8 v -3.7 h -14.8 z m 16.65,-11.0999992 h -7.4 v 3.5149992 h 7.4 c 3.1635,0 5.735,2.5715 5.735,5.735 0,3.1635 -2.5715,5.735 -5.735,5.735 h -7.4 v 3.515 h 7.4 c 5.106,0 9.25,-4.144 9.25,-9.25 0,-5.106 -4.144,-9.2499992 -9.25,-9.2499992 z" />
  </g>
</svg>
