<?xml version="1.0" encoding="UTF-8" standalone="no"?>
<svg
   xmlns:dc="http://purl.org/dc/elements/1.1/"
   xmlns:cc="http://creativecommons.org/ns#"
   xmlns:rdf="http://www.w3.org/1999/02/22-rdf-syntax-ns#"
   xmlns:svg="http://www.w3.org/2000/svg"
   xmlns="http://www.w3.org/2000/svg"
   xmlns:sodipodi="http://sodipodi.sourceforge.net/DTD/sodipodi-0.dtd"
   xmlns:inkscape="http://www.inkscape.org/namespaces/inkscape"
   height="50"
   viewBox="0 0 50 50"
   width="50"
   version="1.1"
   id="svg6"
   sodipodi:docname="mentors.svg"
   style="fill:#ffffff"
   inkscape:version="0.92pre3 r">
  <metadata
     id="metadata12">
    <rdf:RDF>
      <cc:Work
         rdf:about="">
        <dc:format>image/svg+xml</dc:format>
        <dc:type
           rdf:resource="http://purl.org/dc/dcmitype/StillImage" />
        <dc:title></dc:title>
      </cc:Work>
    </rdf:RDF>
  </metadata>
  <defs
     id="defs10" />
  <sodipodi:namedview
     pagecolor="#ffffff"
     bordercolor="#666666"
     borderopacity="1"
     objecttolerance="10"
     gridtolerance="10"
     guidetolerance="10"
     inkscape:pageopacity="0"
     inkscape:pageshadow="2"
     inkscape:window-width="1280"
     inkscape:window-height="953"
     id="namedview8"
     showgrid="false"
     inkscape:zoom="1"
     inkscape:cx="-18.508475"
     inkscape:cy="13.728814"
     inkscape:window-x="0"
     inkscape:window-y="24"
     inkscape:window-maximized="1"
     inkscape:current-layer="svg6" />
  <g
     id="g109"
     transform="translate(43.508474,14.830508)">
    <circle
       r="25"
       cy="10.169492"
       cx="-18.508474"
       id="path3671"
       style="fill:#008080;fill-opacity:1;fill-rule:evenodd;stroke:none;stroke-width:3.90260816px;stroke-linecap:butt;stroke-linejoin:miter;stroke-opacity:1" />
    <path
       style="stroke-width:1.68181813"
       inkscape:connector-curvature="0"
       id="path4"
       d="m -11.781201,8.4876736 c 2.7918178,0 5.0286358,-2.2536363 5.0286358,-5.0454545 0,-2.79181819 -2.236818,-5.0454545 -5.0286358,-5.0454545 -2.791818,0 -5.045455,2.25363631 -5.045455,5.0454545 0,2.7918182 2.253637,5.0454545 5.045455,5.0454545 z m -13.454546,0 c 2.791818,0 5.028637,-2.2536363 5.028637,-5.0454545 0,-2.79181819 -2.236819,-5.0454545 -5.028637,-5.0454545 -2.791818,0 -5.045454,2.25363631 -5.045454,5.0454545 0,2.7918182 2.253636,5.0454545 5.045454,5.0454545 z m 0,3.3636364 c -3.918636,0 -11.772727,1.967727 -11.772727,5.886364 v 4.204545 h 23.545455 v -4.204545 c 0,-3.918637 -7.854091,-5.886364 -11.772728,-5.886364 z m 13.454546,0 c -0.487728,0 -1.042728,0.03364 -1.631364,0.08409 1.950909,1.412727 3.313182,3.313182 3.313182,5.802273 v 4.204545 h 10.0909088 v -4.204545 c 0,-3.918637 -7.854091,-5.886364 -11.7727268,-5.886364 z" />
  </g>
</svg>
