<?xml version="1.0" encoding="UTF-8" standalone="no"?>
<svg
   xmlns:dc="http://purl.org/dc/elements/1.1/"
   xmlns:cc="http://creativecommons.org/ns#"
   xmlns:rdf="http://www.w3.org/1999/02/22-rdf-syntax-ns#"
   xmlns:svg="http://www.w3.org/2000/svg"
   xmlns="http://www.w3.org/2000/svg"
   xmlns:sodipodi="http://sodipodi.sourceforge.net/DTD/sodipodi-0.dtd"
   xmlns:inkscape="http://www.inkscape.org/namespaces/inkscape"
   height="50"
   viewBox="0 0 25 25"
   width="50"
   version="1.1"
   id="svg6"
   sodipodi:docname="outreach.svg"
   style="fill:#ffffff"
   inkscape:version="0.92pre3 r">
  <metadata
     id="metadata12">
    <rdf:RDF>
      <cc:Work
         rdf:about="">
        <dc:format>image/svg+xml</dc:format>
        <dc:type
           rdf:resource="http://purl.org/dc/dcmitype/StillImage" />
        <dc:title></dc:title>
      </cc:Work>
    </rdf:RDF>
  </metadata>
  <defs
     id="defs10" />
  <sodipodi:namedview
     pagecolor="#ffffff"
     bordercolor="#666666"
     borderopacity="1"
     objecttolerance="10"
     gridtolerance="10"
     guidetolerance="10"
     inkscape:pageopacity="0"
     inkscape:pageshadow="2"
     inkscape:window-width="1280"
     inkscape:window-height="953"
     id="namedview8"
     showgrid="false"
     inkscape:measure-start="0,0"
     inkscape:measure-end="0,0"
     inkscape:zoom="4.9166667"
     inkscape:cx="-5.1864407"
     inkscape:cy="24"
     inkscape:window-x="0"
     inkscape:window-y="24"
     inkscape:window-maximized="1"
     inkscape:current-layer="svg6" />
  <circle
     style="fill:#2a7fff;fill-rule:evenodd;stroke:none;stroke-width:1.95130408px;stroke-linecap:butt;stroke-linejoin:miter;stroke-opacity:1"
     id="path3671"
     cx="12.5"
     cy="12.5"
     r="12.5" />
  <g
     style="fill:#ffffff"
     id="g3924"
     transform="matrix(0.79166667,0,0,0.79166667,3,3)">
    <path
       id="path3910"
       d="M 19,3 H 5 C 3.9,3 3,3.9 3,5 v 14 c 0,1.1 0.9,2 2,2 h 14 c 1.1,0 2,-0.9 2,-2 V 5 C 21,3.9 20.1,3 19,3 Z M 9,17 H 7 v -7 h 2 z m 4,0 H 11 V 7 h 2 z m 4,0 h -2 v -4 h 2 z"
       inkscape:connector-curvature="0" />
    <path
       id="path3912"
       d="M 0,0 H 24 V 24 H 0 Z"
       inkscape:connector-curvature="0"
       style="fill:none" />
  </g>
</svg>
