<?xml version="1.0" encoding="UTF-8" standalone="no"?>
<svg
   xmlns:dc="http://purl.org/dc/elements/1.1/"
   xmlns:cc="http://creativecommons.org/ns#"
   xmlns:rdf="http://www.w3.org/1999/02/22-rdf-syntax-ns#"
   xmlns:svg="http://www.w3.org/2000/svg"
   xmlns="http://www.w3.org/2000/svg"
   xmlns:sodipodi="http://sodipodi.sourceforge.net/DTD/sodipodi-0.dtd"
   xmlns:inkscape="http://www.inkscape.org/namespaces/inkscape"
   height="50"
   viewBox="0 0 25 25"
   width="50"
   version="1.1"
   id="svg6"
   sodipodi:docname="tags.svg"
   style="fill:#ffffff"
   inkscape:version="0.92pre3 r">
  <metadata
     id="metadata12">
    <rdf:RDF>
      <cc:Work
         rdf:about="">
        <dc:format>image/svg+xml</dc:format>
        <dc:type
           rdf:resource="http://purl.org/dc/dcmitype/StillImage" />
        <dc:title></dc:title>
      </cc:Work>
    </rdf:RDF>
  </metadata>
  <defs
     id="defs10">
    <path
       id="a"
       d="M0 0h24v24H0V0z" />
  </defs>
  <sodipodi:namedview
     pagecolor="#ffffff"
     bordercolor="#666666"
     borderopacity="1"
     objecttolerance="10"
     gridtolerance="10"
     guidetolerance="10"
     inkscape:pageopacity="0"
     inkscape:pageshadow="2"
     inkscape:window-width="1280"
     inkscape:window-height="953"
     id="namedview8"
     showgrid="false"
     inkscape:measure-start="0,0"
     inkscape:measure-end="0,0"
     inkscape:zoom="5.6568542"
     inkscape:cx="21.519714"
     inkscape:cy="24"
     inkscape:window-x="0"
     inkscape:window-y="24"
     inkscape:window-maximized="1"
     inkscape:current-layer="svg6" />
  <circle
     style="fill:#008080;fill-rule:evenodd;stroke:none;stroke-width:1.95130408px;stroke-linecap:butt;stroke-linejoin:miter;stroke-opacity:1"
     id="path3671"
     cx="12.5"
     cy="12.5"
     r="12.5" />
  <path
     style="fill:#ffffff;stroke-width:0.875"
     inkscape:connector-curvature="0"
     d="m 20.73375,12.1325 -7.875,-7.875 C 12.54375,3.9425 12.10625,3.75 11.625,3.75 H 5.5 C 4.5375,3.75 3.75,4.5375 3.75,5.5 v 6.125 c 0,0.48125 0.1925,0.91875 0.51625,1.2425 l 7.875,7.875 c 0.315,0.315 0.7525,0.5075 1.23375,0.5075 0.48125,0 0.91875,-0.1925 1.23375,-0.51625 l 6.125,-6.125 C 21.0575,14.29375 21.25,13.85625 21.25,13.375 c 0,-0.48125 -0.20125,-0.9275 -0.51625,-1.2425 z M 6.8125,8.125 C 6.08625,8.125 5.5,7.53875 5.5,6.8125 5.5,6.08625 6.08625,5.5 6.8125,5.5 7.53875,5.5 8.125,6.08625 8.125,6.8125 8.125,7.53875 7.53875,8.125 6.8125,8.125 Z"
     id="path284"
     sodipodi:nodetypes="sssssssssccsssssss" />
</svg>
